<svg width="20" height="13" viewBox="0 0 20 13" fill="none" xmlns="http://www.w3.org/2000/svg">
<path d="M10.5243 0.414188L19.8239 8.89622C20.0391 9.09239 20.1651 9.36169 20.1786 9.65438C20.192 9.94708 20.0913 10.2268 19.8949 10.4419L19.2705 11.1267C18.8635 11.5724 18.1703 11.6043 17.7248 11.1978L9.91561 4.07525L2.78514 11.8931C2.5888 12.1082 2.31968 12.2343 2.02715 12.2478C1.73429 12.2613 1.45472 12.1603 1.23931 11.9642L0.554774 11.3395C0.339516 11.1432 0.213526 10.8741 0.200067 10.5814C0.186608 10.2887 0.28736 10.0089 0.4837 9.79385L8.97331 0.485509C9.17028 0.269894 9.44071 0.144007 9.73376 0.131183C10.0279 0.117007 10.3086 0.217551 10.5243 0.414188Z" fill="white"/>
</svg>
